<?xml version="1.0" encoding="utf-8"?>
<!-- Generator: Adobe Illustrator 28.1.0, SVG Export Plug-In . SVG Version: 6.00 Build 0)  -->
<svg version="1.1" id="Layer_1" xmlns="http://www.w3.org/2000/svg" xmlns:xlink="http://www.w3.org/1999/xlink" x="0px" y="0px"
	 viewBox="0 0 360 359.5" style="enable-background:new 0 0 360 359.5;" xml:space="preserve">
<style type="text/css">
	.st0{fill:#FFFFFF;}
	.st1{fill:#FFA500;}
	.st2{fill:#737373;}
	.st3{fill:none;}
	.st4{font-family:'Calibri-Light';}
	.st5{font-size:13px;}
</style>
<g>
	<rect y="0" class="st0" width="35.26" height="0.02"/>
	<polygon points="35.26,0 0,0 0,0.02 35.26,0.02 35.26,0 	"/>
</g>
<g>
	<rect x="35.26" y="0.02" class="st0" width="0.27" height="35.27"/>
	<polygon points="35.53,0.02 35.26,0.02 35.26,35.29 35.53,35.29 35.53,0.02 	"/>
</g>
<rect x="35.26" y="0.02" class="st1" width="0.27" height="35.27"/>
<rect x="35.26" y="0.02" class="st1" width="0.27" height="35.27"/>
<g>
	<polygon class="st1" points="35.53,35.29 35.53,137.04 0,137.04 0,0.02 35.26,0.02 35.26,35.29 	"/>
	<polygon class="st1" points="326,0 326,35.29 35.5319,35.29 35.5319,0.02 35.26,0.02 35.26,0 	"/>
	<rect x="324.4667" y="0.0206" class="st1" width="35.5333" height="137.015"/>
</g>
<path class="st2" d="M36,141"/>
<path class="st2" d="M36,143.9744"/>
<line class="st2" x1="36" y1="137.04" x2="0" y2="137.04"/>
<path class="st2" d="M159,133"/>
<g>
	<polygon class="st2" points="324.1623,324.4608 324.1623,222.7108 359.6923,222.7108 359.6923,359.7308 324.4323,359.7308 
		324.4323,324.4608 	"/>
	<polygon class="st2" points="33.6923,359.7508 33.6923,324.4608 324.7276,324.4608 324.7276,359.7308 325,359.7308 325,359.7508 	
		"/>
	
		<rect x="-0.3077" y="222.7151" transform="matrix(-1 -8.978919e-11 8.978919e-11 -1 34.9179 582.4453)" class="st2" width="35.5333" height="137.015"/>
</g>
<g>
	<g>
		<path class="st2" d="M51.2861,84.4077H48.333v-25.207h2.9531V84.4077z"/>
		<path class="st2" d="M78.2334,84.4077h-3.6211L61.6396,64.3159c-0.3281-0.5039-0.5977-1.0312-0.8086-1.582h-0.1055
			c0.0938,0.5391,0.1406,1.6934,0.1406,3.4629v18.2109h-2.9531v-25.207h3.832l12.6211,19.7754
			c0.5273,0.8203,0.8672,1.3828,1.0195,1.6875h0.0703c-0.1172-0.7266-0.1758-1.9629-0.1758-3.709V59.2007h2.9531V84.4077z"/>
		<path class="st2" d="M99.749,61.8726h-7.2773v22.5352h-2.9531V61.8726h-7.2598v-2.6719H99.749V61.8726z"/>
		<path class="st2" d="M117.0635,84.4077h-13.3594v-25.207h12.7969v2.6719h-9.8438v8.3848h9.1055v2.6543h-9.1055v8.8242h10.4062
			V84.4077z"/>
		<path class="st2" d="M139.9854,84.4077h-3.5156l-4.2188-7.0664c-0.3867-0.6562-0.7617-1.2158-1.125-1.6787
			s-0.7354-0.8408-1.1162-1.1338s-0.791-0.5068-1.2305-0.6416s-0.9346-0.2021-1.4854-0.2021h-2.4258v10.7227h-2.9531v-25.207h7.5234
			c1.1016,0,2.1182,0.1377,3.0498,0.4131s1.7402,0.6943,2.4258,1.2568s1.2217,1.2627,1.6084,2.1006s0.5801,1.8193,0.5801,2.9443
			c0,0.8789-0.1318,1.6846-0.3955,2.417s-0.6387,1.3857-1.125,1.96s-1.0723,1.0635-1.7578,1.4678s-1.4561,0.7178-2.3115,0.9404
			v0.0703c0.4219,0.1875,0.7881,0.4014,1.0986,0.6416s0.6064,0.5244,0.8877,0.8525s0.5596,0.7002,0.835,1.1162
			s0.583,0.8994,0.9229,1.4502L139.9854,84.4077z M124.8682,61.8726v9.1406h4.0078c0.7383,0,1.4209-0.1113,2.0479-0.334
			s1.1689-0.542,1.626-0.958s0.8145-0.9258,1.0723-1.5293s0.3867-1.2803,0.3867-2.0303c0-1.3477-0.4365-2.3994-1.3096-3.1553
			s-2.1357-1.1338-3.7881-1.1338H124.8682z"/>
		<path class="st2" d="M163.7686,84.4077h-3.6211l-12.9727-20.0918c-0.3281-0.5039-0.5977-1.0312-0.8086-1.582h-0.1055
			c0.0938,0.5391,0.1406,1.6934,0.1406,3.4629v18.2109h-2.9531v-25.207h3.832l12.6211,19.7754
			c0.5273,0.8203,0.8672,1.3828,1.0195,1.6875h0.0703c-0.1172-0.7266-0.1758-1.9629-0.1758-3.709V59.2007h2.9531V84.4077z"/>
		<path class="st2" d="M189.8896,84.4077h-3.2695l-2.6719-7.0664h-10.6875l-2.5137,7.0664H167.46l9.668-25.207h3.0586
			L189.8896,84.4077z M182.9814,74.687l-3.9551-10.7402c-0.1289-0.3516-0.2578-0.9141-0.3867-1.6875h-0.0703
			c-0.1172,0.7148-0.252,1.2773-0.4043,1.6875l-3.9199,10.7402H182.9814z"/>
		<path class="st2" d="M208.5049,61.8726h-7.2773v22.5352h-2.9531V61.8726h-7.2598v-2.6719h17.4902V61.8726z"/>
		<path class="st2" d="M215.4131,84.4077H212.46v-25.207h2.9531V84.4077z"/>
		<path class="st2" d="M232.2002,84.8296c-3.5742,0-6.4365-1.1777-8.5869-3.5332s-3.2256-5.4199-3.2256-9.1934
			c0-4.0547,1.0957-7.2891,3.2871-9.7031s5.1738-3.6211,8.9473-3.6211c3.4805,0,6.2842,1.1719,8.4111,3.5156
			s3.1904,5.4082,3.1904,9.1934c0,4.1133-1.0898,7.3652-3.2695,9.7559S235.8564,84.8296,232.2002,84.8296z M232.4111,61.4507
			c-2.6484,0-4.7988,0.9551-6.4512,2.8652s-2.4785,4.418-2.4785,7.5234s0.8057,5.6045,2.417,7.4971s3.7119,2.8389,6.3018,2.8389
			c2.7656,0,4.9453-0.9023,6.5391-2.707s2.3906-4.3301,2.3906-7.5762c0-3.3281-0.7734-5.9004-2.3203-7.7168
			S235.1299,61.4507,232.4111,61.4507z"/>
		<path class="st2" d="M269.501,84.4077h-3.6211l-12.9727-20.0918c-0.3281-0.5039-0.5977-1.0312-0.8086-1.582h-0.1055
			c0.0938,0.5391,0.1406,1.6934,0.1406,3.4629v18.2109h-2.9531v-25.207h3.832l12.6211,19.7754
			c0.5273,0.8203,0.8672,1.3828,1.0195,1.6875h0.0703c-0.1172-0.7266-0.1758-1.9629-0.1758-3.709V59.2007h2.9531V84.4077z"/>
		<path class="st2" d="M295.6221,84.4077h-3.2695l-2.6719-7.0664h-10.6875l-2.5137,7.0664h-3.2871l9.668-25.207h3.0586
			L295.6221,84.4077z M288.7139,74.687l-3.9551-10.7402c-0.1289-0.3516-0.2578-0.9141-0.3867-1.6875h-0.0703
			c-0.1172,0.7148-0.252,1.2773-0.4043,1.6875l-3.9199,10.7402H288.7139z"/>
		<path class="st2" d="M312.4092,84.4077h-13.0781v-25.207h2.9531v22.5352h10.125V84.4077z"/>
		<path class="st2" d="M171.0371,127.6079h-2.9531v-25.207h2.9531V127.6079z"/>
		<path class="st2" d="M192.5703,105.0728h-7.2773v22.5352h-2.9531v-22.5352h-7.2598v-2.6719h17.4902V105.0728z"/>
		<path class="st2" d="M86.3369,169.7881v-3.4805c0.3984,0.3516,0.876,0.668,1.4326,0.9492s1.1426,0.5186,1.7578,0.7119
			s1.2334,0.3428,1.8545,0.4482s1.1953,0.1582,1.7227,0.1582c1.8164,0,3.1729-0.3369,4.0693-1.0107s1.3447-1.6436,1.3447-2.9092
			c0-0.6797-0.1494-1.2715-0.4482-1.7754s-0.7119-0.9639-1.2393-1.3799s-1.1514-0.8145-1.8721-1.1953s-1.4971-0.7822-2.3291-1.2041
			c-0.8789-0.4453-1.6992-0.8965-2.4609-1.3535s-1.4238-0.9609-1.9863-1.5117s-1.0049-1.1748-1.3271-1.8721
			s-0.4834-1.5146-0.4834-2.4521c0-1.1484,0.252-2.1475,0.7559-2.9971s1.166-1.5498,1.9863-2.1006s1.7549-0.9609,2.8037-1.2305
			s2.1182-0.4043,3.208-0.4043c2.4844,0,4.2949,0.2988,5.4316,0.8965v3.3223c-1.4883-1.0312-3.3984-1.5469-5.7305-1.5469
			c-0.6445,0-1.2891,0.0674-1.9336,0.2021s-1.2188,0.3545-1.7227,0.6592s-0.9141,0.6973-1.2305,1.1777s-0.4746,1.0664-0.4746,1.7578
			c0,0.6445,0.1201,1.2012,0.3604,1.6699s0.5947,0.8965,1.0635,1.2832s1.04,0.7617,1.7139,1.125s1.4502,0.7617,2.3291,1.1953
			c0.9023,0.4453,1.7578,0.9141,2.5664,1.4062s1.5176,1.0371,2.127,1.6348s1.0928,1.2598,1.4502,1.9863s0.5361,1.5586,0.5361,2.4961
			c0,1.2422-0.2432,2.2939-0.7295,3.1553s-1.1426,1.5615-1.9688,2.1006s-1.7783,0.9287-2.8564,1.1689s-2.2148,0.3604-3.4102,0.3604
			c-0.3984,0-0.8906-0.0322-1.4766-0.0967s-1.1836-0.1582-1.793-0.2812s-1.1865-0.2754-1.7314-0.457
			S86.665,170.0107,86.3369,169.7881z"/>
		<path class="st2" d="M116.7998,171.2295c-3.5742,0-6.4365-1.1777-8.5869-3.5332s-3.2256-5.4199-3.2256-9.1934
			c0-4.0547,1.0957-7.2891,3.2871-9.7031s5.1738-3.6211,8.9473-3.6211c3.4805,0,6.2842,1.1719,8.4111,3.5156
			s3.1904,5.4082,3.1904,9.1934c0,4.1133-1.0898,7.3652-3.2695,9.7559S120.4561,171.2295,116.7998,171.2295z M117.0107,147.8506
			c-2.6484,0-4.7988,0.9551-6.4512,2.8652s-2.4785,4.418-2.4785,7.5234s0.8057,5.6045,2.417,7.4971s3.7119,2.8389,6.3018,2.8389
			c2.7656,0,4.9453-0.9023,6.5391-2.707s2.3906-4.3301,2.3906-7.5762c0-3.3281-0.7734-5.9004-2.3203-7.7168
			S119.7295,147.8506,117.0107,147.8506z"/>
		<path class="st2" d="M146.8584,170.8076h-13.0781v-25.207h2.9531v22.5352h10.125V170.8076z"/>
		<path class="st2" d="M169.165,160.6123c0,7.0781-3.1934,10.6172-9.5801,10.6172c-6.1172,0-9.1758-3.4043-9.1758-10.2129v-15.416
			h2.9531v15.2227c0,5.168,2.1797,7.752,6.5391,7.752c4.207,0,6.3105-2.4961,6.3105-7.4883v-15.4863h2.9531V160.6123z"/>
		<path class="st2" d="M190.3643,148.2725h-7.2773v22.5352h-2.9531v-22.5352h-7.2598v-2.6719h17.4902V148.2725z"/>
		<path class="st2" d="M197.2725,170.8076h-2.9531v-25.207h2.9531V170.8076z"/>
		<path class="st2" d="M214.0596,171.2295c-3.5742,0-6.4365-1.1777-8.5869-3.5332s-3.2256-5.4199-3.2256-9.1934
			c0-4.0547,1.0957-7.2891,3.2871-9.7031s5.1738-3.6211,8.9473-3.6211c3.4805,0,6.2842,1.1719,8.4111,3.5156
			s3.1904,5.4082,3.1904,9.1934c0,4.1133-1.0898,7.3652-3.2695,9.7559S217.7158,171.2295,214.0596,171.2295z M214.2705,147.8506
			c-2.6484,0-4.7988,0.9551-6.4512,2.8652s-2.4785,4.418-2.4785,7.5234s0.8057,5.6045,2.417,7.4971s3.7119,2.8389,6.3018,2.8389
			c2.7656,0,4.9453-0.9023,6.5391-2.707s2.3906-4.3301,2.3906-7.5762c0-3.3281-0.7734-5.9004-2.3203-7.7168
			S216.9893,147.8506,214.2705,147.8506z"/>
		<path class="st2" d="M251.3604,170.8076h-3.6211l-12.9727-20.0918c-0.3281-0.5039-0.5977-1.0312-0.8086-1.582h-0.1055
			c0.0938,0.5391,0.1406,1.6934,0.1406,3.4629v18.2109H231.04v-25.207h3.832l12.6211,19.7754
			c0.5273,0.8203,0.8672,1.3828,1.0195,1.6875h0.0703c-0.1172-0.7266-0.1758-1.9629-0.1758-3.709v-17.7539h2.9531V170.8076z"/>
		<path class="st2" d="M256.792,169.7881v-3.4805c0.3984,0.3516,0.876,0.668,1.4326,0.9492s1.1426,0.5186,1.7578,0.7119
			s1.2334,0.3428,1.8545,0.4482s1.1953,0.1582,1.7227,0.1582c1.8164,0,3.1729-0.3369,4.0693-1.0107s1.3447-1.6436,1.3447-2.9092
			c0-0.6797-0.1494-1.2715-0.4482-1.7754s-0.7119-0.9639-1.2393-1.3799s-1.1514-0.8145-1.8721-1.1953s-1.4971-0.7822-2.3291-1.2041
			c-0.8789-0.4453-1.6992-0.8965-2.4609-1.3535s-1.4238-0.9609-1.9863-1.5117s-1.0049-1.1748-1.3271-1.8721
			s-0.4834-1.5146-0.4834-2.4521c0-1.1484,0.252-2.1475,0.7559-2.9971s1.166-1.5498,1.9863-2.1006s1.7549-0.9609,2.8037-1.2305
			s2.1182-0.4043,3.208-0.4043c2.4844,0,4.2949,0.2988,5.4316,0.8965v3.3223c-1.4883-1.0312-3.3984-1.5469-5.7305-1.5469
			c-0.6445,0-1.2891,0.0674-1.9336,0.2021s-1.2188,0.3545-1.7227,0.6592s-0.9141,0.6973-1.2305,1.1777s-0.4746,1.0664-0.4746,1.7578
			c0,0.6445,0.1201,1.2012,0.3604,1.6699s0.5947,0.8965,1.0635,1.2832s1.04,0.7617,1.7139,1.125s1.4502,0.7617,2.3291,1.1953
			c0.9023,0.4453,1.7578,0.9141,2.5664,1.4062s1.5176,1.0371,2.127,1.6348s1.0928,1.2598,1.4502,1.9863s0.5361,1.5586,0.5361,2.4961
			c0,1.2422-0.2432,2.2939-0.7295,3.1553s-1.1426,1.5615-1.9688,2.1006s-1.7783,0.9287-2.8564,1.1689s-2.2148,0.3604-3.4102,0.3604
			c-0.3984,0-0.8906-0.0322-1.4766-0.0967s-1.1836-0.1582-1.793-0.2812s-1.1865-0.2754-1.7314-0.457
			S257.1201,170.0107,256.792,169.7881z"/>
	</g>
</g>
<rect x="36" y="223" class="st3" width="288" height="104"/>
<text transform="matrix(1 0 0 1 42.3447 231.8135)"><tspan x="0" y="0" class="st2 st4 st5">01001001 01001110 01010100 01000101 01010010 </tspan><tspan x="0" y="15.6006" class="st2 st4 st5">01001110 01000001 01010100 01001001 01001111 </tspan><tspan x="0" y="31.2002" class="st2 st4 st5">01001110 01000001 01001100 00100000 01001001 </tspan><tspan x="0" y="46.8008" class="st2 st4 st5">01010100 00100000 01010011 01001111 01001100 </tspan><tspan x="0" y="62.4004" class="st2 st4 st5">01010101 01010100 01001001 01001111 01001110 </tspan><tspan x="111.2998" y="78" class="st2 st4 st5">01010011</tspan></text>
</svg>
